<svg width="24" height="24" viewBox="0 0 24 24" fill="none" xmlns="http://www.w3.org/2000/svg">
<path fill-rule="evenodd" clip-rule="evenodd" d="M1.0686 11.636C2.8026 7.194 6.8836 4 11.9996 4C17.1156 4 21.1966 7.194 22.9316 11.636C23.0231 11.87 23.0231 12.13 22.9316 12.364C21.1966 16.806 17.1156 20 11.9996 20C6.8836 20 2.8026 16.806 1.0686 12.364C0.977133 12.13 0.977133 11.87 1.0686 11.636ZM11.9996 15C12.7953 15 13.5583 14.6839 14.1209 14.1213C14.6835 13.5587 14.9996 12.7956 14.9996 12C14.9996 11.2044 14.6835 10.4413 14.1209 9.87868C13.5583 9.31607 12.7953 9 11.9996 9C11.204 9 10.4409 9.31607 9.87828 9.87868C9.31567 10.4413 8.9996 11.2044 8.9996 12C8.9996 12.7956 9.31567 13.5587 9.87828 14.1213C10.4409 14.6839 11.204 15 11.9996 15Z" fill="#9E9EA7"/>
</svg>
